<?xml version="1.0" standalone="no"?>
<!DOCTYPE svg PUBLIC "-//W3C//DTD SVG 20010904//EN"
 "http://www.w3.org/TR/2001/REC-SVG-20010904/DTD/svg10.dtd">
<svg version="1.0" xmlns="http://www.w3.org/2000/svg"
 width="512.000000pt" height="512.000000pt" viewBox="0 0 512.000000 512.000000"
 preserveAspectRatio="xMidYMid meet">
<metadata>
Created by potrace 1.11, written by Peter Selinger 2001-2013
</metadata>
<g transform="translate(0.000000,512.000000) scale(0.100000,-0.100000)"
fill="#000000" stroke="none">
<path d="M2076 4359 c-13 -20 -16 -55 -16 -221 0 -152 -3 -198 -12 -198 -7 0
-44 7 -83 15 -145 30 -321 45 -520 45 -308 -1 -365 -15 -365 -90 0 -42 9 -59
40 -75 24 -12 51 -13 167 -4 153 12 414 -1 558 -27 44 -8 110 -19 148 -26 l67
-12 0 -249 c0 -151 -4 -246 -9 -242 -26 15 -323 57 -449 62 -139 6 -143 6
-167 -17 -18 -17 -25 -34 -25 -61 0 -58 30 -76 138 -83 141 -10 341 -35 427
-55 l80 -17 3 -81 3 -81 -83 18 c-169 36 -278 45 -543 45 -197 -1 -286 -5
-368 -18 -246 -39 -447 -94 -472 -129 -34 -50 2 -128 58 -128 14 0 86 16 160
35 380 97 775 106 1165 25 62 -12 102 -16 117 -10 26 10 55 47 55 70 0 12 126
104 161 118 4 2 49 -24 99 -58 73 -49 98 -61 121 -58 l29 5 3 -666 c1 -366 3
-73 5 652 2 1105 0 1323 -12 1351 -12 28 -26 38 -102 70 -95 40 -278 102 -330
112 -26 5 -35 1 -48 -17z"/>
<path d="M3505 4004 c-142 -14 -148 -16 -177 -44 -34 -35 -36 -70 -4 -106 l23
-28 309 -1 c354 -1 425 -10 739 -94 82 -22 118 -14 141 31 18 34 11 78 -15
102 -33 30 -250 84 -466 117 -124 19 -455 33 -550 23z"/>
<path d="M770 3920 c-14 -5 -52 -16 -84 -26 -71 -20 -106 -51 -106 -94 0 -38
39 -80 75 -80 56 0 210 50 233 76 26 30 29 74 4 104 -20 24 -82 35 -122 20z"/>
<path d="M2990 3920 c-14 -5 -51 -16 -82 -25 -70 -19 -98 -46 -98 -95 0 -44
34 -81 76 -82 33 -1 176 38 215 58 45 23 53 83 18 128 -16 21 -28 26 -62 25
-23 0 -53 -4 -67 -9z"/>
<path d="M165 3909 c-48 -13 -115 -78 -141 -133 l-24 -51 0 -1415 c0 -1402 1
-1415 21 -1460 25 -55 62 -95 114 -123 l40 -22 2385 0 2385 0 40 22 c52 28 89
68 114 123 20 45 21 58 21 1460 l0 1415 -24 51 c-27 58 -94 120 -145 134 -20
5 -64 10 -98 10 l-63 0 0 -1309 c0 -1288 0 -1309 -20 -1333 -11 -14 -28 -28
-39 -31 -11 -3 -84 17 -163 45 -421 146 -813 188 -1236 132 -228 -29 -492
-102 -691 -189 l-83 -37 -81 35 c-193 83 -419 148 -633 183 -134 21 -519 30
-666 15 -216 -23 -462 -81 -657 -156 -101 -38 -135 -39 -165 -6 -15 17 -17
128 -16 1335 l0 1316 -72 -1 c-40 0 -87 -5 -103 -10z"/>
<path d="M3457 3670 c-249 -23 -587 -99 -627 -143 -28 -29 -27 -88 3 -114 34
-31 51 -33 114 -17 339 90 408 99 767 99 l298 0 19 24 c24 29 24 82 2 110 -11
13 -38 25 -71 31 -76 14 -390 20 -505 10z"/>
<path d="M1125 3654 c-231 -28 -503 -98 -530 -136 -34 -50 2 -128 58 -128 14
0 86 16 160 35 207 53 392 77 602 78 99 1 217 -2 263 -6 l82 -8 30 30 c36 35
38 70 7 106 -18 21 -35 28 -92 35 -102 14 -453 10 -580 -6z"/>
<path d="M4241 3583 c-12 -10 -24 -34 -27 -54 -10 -59 22 -85 145 -120 95 -26
105 -27 137 -14 59 24 70 108 18 142 -31 20 -179 62 -220 63 -18 0 -41 -8 -53
-17z"/>
<path d="M3690 3343 c-50 -19 -70 -74 -46 -121 19 -37 60 -52 145 -52 139 0
369 -37 564 -90 87 -23 114 -27 138 -18 60 21 75 111 23 145 -52 34 -346 102
-529 122 -123 14 -277 21 -295 14z"/>
<path d="M1110 3323 c-198 -30 -428 -82 -482 -109 -53 -27 -64 -89 -23 -129
31 -32 47 -32 206 9 134 34 302 66 347 66 29 0 82 51 82 79 0 33 -20 68 -47
80 -24 11 -36 12 -83 4z"/>
<path d="M3235 3311 c-225 -40 -376 -82 -405 -113 -40 -43 -18 -120 41 -140 8
-4 83 11 165 32 82 20 203 45 269 55 140 21 165 37 165 104 0 31 -6 44 -26 60
-33 26 -72 26 -209 2z"/>
<path d="M3535 3014 c-214 -13 -448 -55 -668 -120 -58 -17 -77 -102 -32 -144
31 -29 65 -29 182 4 217 60 416 86 663 86 242 0 461 -30 694 -95 80 -22 91
-23 122 -10 59 24 69 108 18 142 -52 33 -345 102 -529 122 -104 12 -362 20
-450 15z"/>
<path d="M3490 2680 c-134 -10 -339 -42 -454 -71 -189 -47 -226 -68 -226 -126
0 -46 13 -68 49 -82 25 -11 45 -8 147 19 232 62 446 90 684 90 147 0 172 7
191 57 12 33 -3 83 -31 101 -26 16 -216 23 -360 12z"/>
<path d="M1140 2665 c-179 -22 -421 -74 -505 -109 -57 -24 -72 -90 -30 -131
31 -32 65 -32 180 0 191 53 347 76 560 81 110 3 215 7 233 10 69 11 97 90 47
139 -24 25 -26 25 -202 24 -98 -1 -225 -7 -283 -14z"/>
<path d="M4101 2639 c-34 -13 -50 -39 -51 -77 0 -66 18 -79 155 -107 44 -9
119 -28 167 -41 51 -15 96 -22 111 -19 74 19 86 125 18 160 -24 12 -271 76
-346 89 -16 3 -41 1 -54 -5z"/>
<path d="M1846 2617 c-33 -33 -34 -79 -3 -111 16 -16 49 -29 103 -40 43 -10
120 -28 170 -42 51 -13 105 -24 121 -24 70 0 99 100 42 143 -30 21 -263 84
-351 94 -51 5 -58 3 -82 -20z"/>
<path d="M3550 2354 c-191 -12 -425 -49 -565 -88 -27 -8 -69 -19 -92 -26 -56
-14 -83 -44 -83 -90 0 -37 25 -70 62 -83 10 -3 59 5 110 19 243 65 457 94 693
94 247 0 443 -27 697 -95 92 -24 99 -25 128 -10 55 29 64 109 15 141 -51 33
-306 93 -501 118 -124 15 -368 26 -464 20z"/>
<path d="M1135 2335 c-243 -32 -495 -94 -532 -131 -31 -31 -30 -78 2 -109 30
-31 57 -31 170 0 220 60 431 88 670 88 250 0 447 -26 672 -88 48 -14 102 -25
119 -25 66 0 101 92 52 137 -39 36 -307 100 -533 128 -147 18 -479 18 -620 0z"/>
<path d="M3540 2021 c-52 -3 -105 -12 -117 -19 -23 -13 -43 -65 -35 -94 6 -24
40 -58 60 -58 493 -3 591 -12 861 -81 154 -39 180 -40 213 -12 42 37 26 119
-29 142 -56 22 -261 71 -383 91 -116 18 -392 42 -450 38 -14 -1 -68 -4 -120
-7z"/>
<path d="M1228 2014 c-62 -11 -88 -95 -44 -139 25 -25 25 -25 233 -24 280 1
442 -19 680 -81 62 -17 125 -30 141 -30 66 0 99 97 47 138 -34 27 -218 76
-400 108 -127 22 -187 26 -390 29 -132 2 -252 1 -267 -1z"/>
<path d="M792 1940 c-167 -43 -181 -48 -197 -80 -21 -42 -19 -67 11 -97 31
-31 61 -29 234 16 126 33 150 50 150 106 0 25 -8 40 -31 59 -17 14 -36 26 -42
26 -7 -1 -63 -14 -125 -30z"/>
<path d="M3075 1958 c-133 -32 -223 -62 -242 -81 -46 -42 -22 -127 39 -142 34
-9 306 69 331 94 32 31 28 87 -7 117 -29 25 -56 28 -121 12z"/>
</g>
</svg>
